<?xml version="1.0" standalone="no"?>
<!DOCTYPE svg PUBLIC "-//W3C//DTD SVG 20010904//EN"
 "http://www.w3.org/TR/2001/REC-SVG-20010904/DTD/svg10.dtd">
<svg version="1.0" xmlns="http://www.w3.org/2000/svg"
 width="300.000000pt" height="300.000000pt" viewBox="0 0 300.000000 300.000000"
 preserveAspectRatio="xMidYMid meet">
<metadata>
Created by potrace 1.10, written by Peter Selinger 2001-2011
</metadata>
<g transform="translate(0.000000,300.000000) scale(0.100000,-0.100000)"
fill="#000080" stroke="none">
<path d="M1150 2625 c-195 -61 -361 -113 -368 -116 -8 -2 153 -51 357 -108
l371 -104 73 22 c39 12 198 63 353 114 l281 93 -246 72 c-135 40 -295 87 -356
105 l-110 33 -355 -111z m418 69 c17 -3 32 -10 32 -15 0 -5 10 -9 23 -9 12 0
94 -22 182 -49 88 -26 189 -56 225 -66 36 -10 69 -21 74 -23 7 -4 -17 -24 -34
-28 -3 0 -12 -3 -20 -6 -58 -22 -119 -40 -140 -41 -14 -1 -29 -8 -35 -14 -5
-7 -22 -14 -37 -15 -16 -1 -28 -6 -28 -10 0 -4 -13 -8 -30 -8 -16 0 -30 -4
-30 -10 0 -5 -8 -10 -18 -10 -11 0 -44 -9 -75 -19 -32 -11 -57 -17 -57 -14 0
3 -8 -1 -17 -10 -24 -21 -69 -31 -78 -18 -3 6 -10 9 -15 6 -5 -3 -28 1 -52 9
-24 8 -95 28 -158 45 -63 16 -126 33 -140 37 -14 3 -54 15 -90 26 -36 11 -72
21 -80 23 -69 14 -103 28 -90 35 13 7 81 30 289 96 24 7 47 11 52 8 5 -3 9 -1
9 3 0 5 21 15 48 22 26 7 85 25 132 41 47 15 94 26 105 24 11 -2 35 -7 53 -10z"/>
<path d="M1696 2335 l-188 -64 -203 59 c-111 33 -204 60 -206 60 -2 0 -3 -50
-1 -110 3 -99 5 -110 20 -106 178 55 598 55 782 1 13 -4 15 12 12 110 -2 81
-7 115 -15 114 -7 0 -97 -29 -201 -64z m187 -47 c3 -40 3 -75 2 -77 -3 -3
-141 14 -300 37 l-50 8 110 37 c95 31 206 64 226 66 4 1 9 -32 12 -71z m-633
33 c41 -12 94 -27 118 -33 23 -6 42 -15 42 -20 0 -5 5 -6 10 -3 6 3 10 -1 10
-10 0 -15 -9 -16 -61 -12 -34 3 -56 1 -49 -3 6 -4 -19 -10 -57 -14 -37 -3 -82
-9 -100 -12 -27 -5 -32 -3 -32 12 0 11 -1 26 -2 34 -1 8 -1 32 -1 54 2 44 -6
43 122 7z"/>
<path d="M1445 2190 c-16 -5 -175 -46 -353 -91 l-323 -82 3 -601 3 -601 27
-63 c44 -102 95 -178 184 -271 128 -135 312 -256 462 -305 49 -17 55 -17 105
-1 213 70 481 284 593 474 86 147 84 124 84 787 0 321 -3 584 -6 584 -3 0
-164 41 -358 90 -194 50 -361 90 -372 89 -10 0 -32 -5 -49 -9z m130 -31 c28
-6 54 -14 60 -17 5 -3 18 -7 30 -8 11 -1 99 -23 195 -48 96 -25 186 -48 200
-52 14 -3 32 -8 40 -11 8 -4 28 -8 45 -10 71 -10 65 37 65 -571 -1 -616 -1
-621 -72 -754 -23 -43 -45 -78 -50 -78 -4 0 -13 -11 -20 -24 -21 -38 -111
-136 -126 -136 -7 0 -11 -4 -8 -8 3 -5 -12 -21 -32 -36 -20 -15 -61 -45 -90
-66 -29 -21 -61 -42 -72 -45 -11 -4 -20 -10 -20 -14 0 -7 -70 -41 -150 -74
-79 -32 -155 -8 -354 113 -41 24 -72 48 -70 52 3 4 0 8 -5 8 -15 0 -44 24
-116 95 -113 113 -184 225 -215 343 -16 60 -18 125 -19 619 0 405 3 554 11
559 10 7 58 19 113 29 11 2 22 4 25 6 3 1 10 3 15 4 6 1 22 7 36 13 14 5 41
12 60 14 19 1 36 5 39 9 7 7 413 107 425 104 6 -2 33 -9 60 -16z"/>
<path d="M1420 2098 c-41 -11 -95 -24 -120 -30 -25 -5 -61 -14 -80 -18 -46
-11 -188 -49 -222 -60 -17 -5 -30 -4 -34 1 -3 6 -11 4 -17 -4 -7 -7 -31 -19
-54 -26 -23 -6 -45 -17 -49 -23 -4 -7 -9 -87 -10 -178 -1 -91 -3 -172 -3 -180
0 -8 1 -60 4 -115 4 -109 0 -139 -18 -128 -8 5 -8 2 1 -9 7 -8 12 -41 12 -74
0 -166 2 -193 20 -209 11 -10 15 -25 12 -40 -2 -14 1 -31 7 -39 9 -11 7 -19
-13 -39 -22 -22 -23 -29 -16 -63 21 -90 68 -192 113 -241 11 -13 17 -23 14
-23 -10 0 78 -90 139 -142 86 -73 98 -82 144 -107 25 -13 52 -29 60 -35 42
-31 151 -76 184 -76 28 0 129 33 143 46 7 6 45 28 85 49 40 21 92 53 115 71
58 47 209 194 199 194 -4 0 6 17 22 38 43 55 92 165 99 223 5 45 3 53 -18 73
-13 12 -32 25 -42 29 -13 5 -16 13 -11 34 9 36 10 37 31 28 17 -7 17 -8 -2
-15 -14 -6 -15 -9 -5 -10 10 -1 9 -4 -5 -9 -19 -8 -19 -8 1 -19 17 -9 22 -7
31 19 6 16 7 31 2 34 -4 3 1 15 11 25 21 21 23 59 20 620 -1 275 -2 281 -63
295 -17 4 -38 9 -44 11 -21 6 -34 9 -120 29 -46 10 -83 22 -83 27 0 5 -4 7 -8
4 -5 -3 -31 1 -58 9 -55 16 -206 54 -244 61 -14 3 -32 6 -40 8 -8 3 -49 -5
-90 -16z m328 -69 c131 -33 272 -69 315 -81 l77 -20 0 -435 c0 -378 -2 -434
-15 -430 -8 4 -68 17 -134 31 -265 56 -504 69 -733 40 -127 -16 -322 -55 -370
-73 l-28 -11 0 439 0 439 63 16 c261 70 555 144 570 145 11 1 125 -26 255 -60z
m-251 -961 c-2 -13 -4 -5 -4 17 -1 22 1 32 4 23 2 -10 2 -28 0 -40z m63 17 c0
-39 -15 -47 -26 -12 l-8 22 -7 -25 c-7 -23 -7 -23 -8 8 -1 35 12 42 28 15 9
-16 10 -16 11 5 0 12 2 22 5 22 3 0 5 -16 5 -35z m-220 -6 c-13 -9 -12 -10 3
-5 9 3 17 4 17 2 0 -3 3 -13 7 -23 6 -16 5 -17 -11 -4 -14 12 -19 12 -26 1 -5
-7 -18 -11 -34 -8 -14 3 -27 0 -29 -5 -2 -6 -11 -8 -20 -4 -11 4 -17 17 -16
39 l1 33 12 -33 c12 -36 26 -33 26 5 0 17 5 23 23 22 21 0 21 -1 2 -9 -20 -9
-20 -9 0 -10 11 -1 14 -4 8 -7 -18 -6 -16 -23 1 -23 8 0 17 14 21 31 5 23 10
28 18 20 9 -9 8 -14 -3 -22z m72 1 c5 -30 -6 -41 -15 -17 -3 6 -6 3 -6 -8 -1
-17 -3 -17 -11 -5 -17 26 -12 60 9 60 13 0 20 -9 23 -30z m32 21 c4 -5 2 -20
-3 -33 -6 -12 -10 -18 -11 -13 -1 6 -3 20 -6 33 -4 22 10 31 20 13z m29 -50
c-9 -13 -21 18 -16 39 7 25 7 25 13 -5 4 -16 5 -32 3 -34z m129 48 c-25 -10
-26 -30 -1 -38 12 -4 12 -2 0 12 -12 15 -11 17 3 17 9 0 16 -8 16 -20 0 -24
-38 -28 -46 -5 -10 24 4 45 28 44 l23 0 -23 -10z m88 1 c0 -5 -5 -10 -11 -10
-5 0 -7 -4 -4 -10 3 -5 2 -10 -4 -10 -5 0 -12 -8 -14 -17 -3 -10 -5 -4 -6 13
0 17 2 34 6 37 10 11 33 8 33 -3z m55 -30 c0 -18 -6 -26 -23 -28 -13 -2 -25 3
-28 12 -10 26 4 48 28 44 17 -2 23 -10 23 -28z m-548 -15 c-2 -40 -8 -44 -22
-13 -6 12 -16 24 -24 26 -10 3 -11 -3 -6 -28 5 -23 4 -30 -4 -26 -6 4 -11 18
-11 32 0 16 -4 23 -11 18 -6 -3 -9 -17 -6 -30 3 -20 -1 -26 -27 -33 -26 -7
-34 -5 -50 13 -13 13 -17 15 -14 5 4 -9 2 -22 -3 -30 -6 -10 -9 -2 -9 24 0 42
10 47 34 15 l17 -23 -6 28 c-3 15 -1 27 5 27 5 0 10 -11 10 -25 0 -16 6 -25
16 -25 13 0 15 7 11 30 -6 26 -3 31 18 36 14 3 36 3 50 0 14 -4 25 -2 25 4 0
5 2 10 4 10 3 0 4 -16 3 -35z m601 0 c0 -41 -5 -44 -18 -12 -7 17 -9 18 -9 5
-1 -10 -5 -18 -9 -18 -5 0 -7 14 -4 30 3 20 10 30 22 30 14 0 18 -8 18 -35z
m56 14 c-10 -4 -13 -8 -6 -8 6 -1 12 -6 12 -12 0 -5 -4 -7 -10 -4 -5 3 -10 -1
-10 -9 0 -9 -4 -16 -9 -16 -8 0 -6 21 5 57 2 7 10 10 20 6 16 -6 16 -7 -2 -14z
m33 -19 c-5 -22 -3 -30 8 -30 9 0 15 10 15 25 0 28 11 30 57 15 25 -9 29 -15
25 -35 -6 -34 14 -32 26 3 9 22 11 23 11 6 1 -27 -23 -59 -37 -50 -7 4 -12 20
-12 37 0 37 -13 37 -28 2 l-12 -28 4 28 c4 36 -11 45 -24 13 -17 -46 -58 -28
-46 20 9 35 20 30 13 -6z m-891 -57 c-9 -22 -36 -15 -46 13 -13 32 -12 37 0
29 6 -3 10 -15 10 -26 0 -12 5 -19 13 -16 6 2 11 17 10 33 -3 29 -3 29 7 5 6
-14 8 -31 6 -38z m1078 39 c3 -5 1 -22 -4 -38 -4 -16 -9 -21 -9 -11 -1 17 -16
23 -24 10 -2 -5 -2 -2 0 5 1 8 3 20 3 28 0 15 25 19 34 6z m-1133 -39 l17 -30
-34 -1 c-25 -1 -34 4 -39 19 -7 22 12 52 29 46 5 -2 18 -17 27 -34z m804 -4
c88 -10 266 -45 353 -68 l44 -12 -7 -42 c-16 -104 -110 -254 -225 -361 -127
-117 -337 -240 -410 -240 -73 0 -283 123 -410 240 -120 112 -216 269 -222 363
l-3 44 50 13 c102 27 336 65 446 73 123 9 241 6 384 -10z"/>
<path d="M1485 2020 c-7 -40 -7 -40 -53 -40 l-47 0 37 -26 36 -26 -14 -35 c-9
-19 -13 -37 -11 -39 3 -3 19 7 36 21 l31 27 31 -27 c17 -14 33 -24 36 -21 2 2
-3 20 -11 40 l-15 35 37 23 37 23 -47 3 c-46 3 -47 4 -53 43 -9 50 -21 50 -30
-1z m41 -77 c-3 -8 -6 -19 -6 -24 0 -12 -33 2 -46 20 -9 12 -8 18 4 27 21 16
56 -1 48 -23z"/>
<path d="M1279 1960 c-3 -18 -10 -25 -26 -24 -27 1 -30 -11 -7 -20 12 -5 14
-13 9 -33 -6 -27 -6 -27 13 -10 17 16 21 16 32 2 19 -22 32 -18 19 6 -11 21 0
38 24 39 4 0 7 4 7 9 0 4 -10 6 -23 4 -18 -4 -25 2 -33 24 l-11 28 -4 -25z"/>
<path d="M1705 1957 c-6 -24 -12 -28 -31 -24 -13 2 -24 0 -24 -4 0 -5 3 -9 8
-9 23 -1 34 -18 23 -39 -13 -24 0 -28 19 -6 11 14 15 14 32 -2 19 -17 19 -17
13 10 -5 20 -3 28 9 33 23 9 20 21 -6 20 -15 -1 -24 7 -28 24 l-7 25 -8 -28z"/>
<path d="M1127 1923 c-5 -14 -14 -20 -23 -16 -7 3 -14 0 -14 -6 0 -6 5 -11 11
-11 6 0 9 -9 6 -20 -5 -21 7 -28 18 -10 5 8 12 7 23 -2 14 -11 15 -10 9 6 -5
12 -1 23 10 33 17 13 16 14 -4 8 -17 -5 -22 -1 -25 17 l-4 23 -7 -22z"/>
<path d="M1860 1922 c0 -19 -4 -22 -22 -17 -21 6 -22 5 -5 -8 11 -10 15 -21
10 -33 -6 -16 -5 -17 9 -6 11 9 18 10 23 2 11 -18 23 -11 18 10 -3 11 0 20 6
20 6 0 11 5 11 11 0 6 -6 9 -12 6 -7 -2 -18 5 -25 17 -12 21 -12 21 -13 -2z"/>
<path d="M1425 1821 c-43 -11 -72 -28 -89 -53 -21 -29 -21 -139 -1 -177 8 -16
49 -50 95 -80 53 -33 84 -60 91 -78 14 -37 0 -78 -26 -78 -17 0 -20 8 -23 52
l-3 51 -76 4 -75 3 5 -61 c5 -74 20 -99 73 -124 81 -40 234 -17 264 39 17 33
14 154 -5 191 -9 18 -42 47 -78 69 -112 70 -135 103 -103 146 21 29 49 2 44
-42 l-4 -33 73 0 73 0 0 48 c0 54 -17 85 -60 107 -35 18 -133 27 -175 16z
m130 -31 c4 -6 11 -8 16 -5 17 11 59 -43 59 -75 0 -30 -1 -31 -42 -28 -34 2
-44 7 -46 23 -5 28 -32 55 -53 55 -25 0 -49 -38 -49 -76 0 -24 9 -40 39 -67
21 -19 48 -38 60 -42 13 -4 19 -11 15 -18 -4 -7 -4 -9 1 -5 13 12 64 -24 79
-57 7 -16 14 -55 15 -85 1 -68 -25 -103 -90 -120 -75 -20 -198 11 -185 46 3 8
2 13 -3 10 -12 -8 -21 18 -21 60 0 35 0 35 42 32 41 -3 43 -5 49 -40 7 -46 25
-68 54 -68 38 0 58 33 53 85 -6 51 -23 70 -112 125 -70 42 -88 70 -92 134 -3
60 14 92 59 111 37 17 143 20 152 5z"/>
<path d="M1213 1807 l-62 -10 -3 -126 -3 -126 -38 105 c-21 58 -41 111 -45
117 -6 10 -22 10 -70 2 l-62 -11 0 -272 0 -271 66 9 65 10 -3 123 c-2 68 -1
123 2 123 3 0 21 -51 41 -113 l35 -112 50 2 c27 2 59 5 72 8 l22 5 0 275 c0
151 -1 274 -2 274 -2 -1 -31 -6 -65 -12z m37 -271 l0 -244 -27 -6 c-58 -12
-66 -5 -103 95 -38 102 -46 119 -60 119 -16 0 -24 -44 -25 -138 -1 -99 -7
-112 -52 -112 -22 0 -23 4 -23 73 -1 153 1 411 3 414 2 1 20 4 40 6 42 5 44 1
87 -114 26 -71 43 -94 64 -86 13 5 16 23 16 111 0 113 6 125 58 126 l22 0 0
-244z"/>
<path d="M1782 1789 c-20 -6 -41 -23 -52 -42 -18 -28 -20 -51 -20 -202 0 -214
10 -242 95 -281 48 -22 67 -26 131 -22 67 3 77 6 104 34 26 25 31 40 37 96 l6
66 -54 6 c-30 4 -65 9 -79 12 -24 4 -25 3 -22 -36 6 -62 -4 -92 -31 -88 -22 3
-22 6 -25 186 l-2 182 24 0 c30 0 36 -16 36 -95 l0 -62 61 -7 c33 -4 67 -10
76 -13 24 -9 13 133 -13 178 -40 67 -186 115 -272 88z m159 -34 c24 -9 57 -29
73 -46 26 -26 31 -40 34 -94 l4 -63 -43 9 c-24 4 -47 8 -51 9 -5 0 -8 26 -8
58 0 64 -12 88 -50 97 -45 10 -52 -18 -54 -216 -1 -98 1 -176 6 -173 4 3 8 0
8 -6 0 -6 12 -15 26 -21 41 -15 64 11 64 73 0 52 0 52 63 42 36 -6 37 -7 37
-51 0 -52 -16 -87 -36 -79 -7 3 -13 0 -11 -6 3 -18 -63 -28 -127 -18 -119 19
-138 52 -144 242 -5 162 0 196 33 232 20 22 33 26 78 26 30 0 74 -7 98 -15z"/>
<path d="M1382 1241 c-8 -5 -12 -21 -10 -37 2 -21 9 -30 26 -32 15 -2 22 2 22
12 0 19 -16 21 -23 4 -3 -7 -6 1 -6 17 -1 22 2 26 9 15 5 -8 12 -11 16 -7 12
12 -19 37 -34 28z"/>
<path d="M1511 1236 c-8 -10 -7 -17 4 -26 8 -7 15 -18 14 -24 0 -7 -2 -6 -6 2
-2 6 -9 10 -14 6 -14 -8 0 -24 22 -24 24 0 25 28 2 46 -17 13 -17 14 0 8 20
-7 23 11 3 19 -8 3 -19 0 -25 -7z"/>
<path d="M1584 1235 c-4 -9 -1 -22 6 -30 7 -9 10 -18 6 -22 -3 -3 -6 -1 -6 6
0 7 -5 9 -10 6 -15 -9 -2 -25 21 -25 24 0 25 17 2 42 -16 18 -16 18 0 12 9 -3
17 -2 17 4 0 17 -30 23 -36 7z"/>
<path d="M1307 1233 c-14 -13 -7 -64 9 -70 17 -6 42 13 30 24 -4 4 -11 1 -16
-7 -7 -11 -10 -8 -10 12 0 20 4 26 15 22 11 -5 13 -2 9 10 -6 16 -25 21 -37 9z"/>
<path d="M1448 1205 c3 -21 10 -35 18 -35 8 0 14 5 14 10 0 6 -6 10 -12 10 -9
0 -8 4 2 10 12 8 13 11 1 19 -11 7 -11 9 0 14 9 3 6 6 -6 6 -18 1 -20 -4 -17
-34z"/>
<path d="M1685 1211 c-7 -34 -1 -51 20 -51 16 0 30 18 20 28 -3 3 -10 0 -15
-8 -7 -11 -10 -8 -10 14 0 25 2 27 16 15 14 -12 16 -11 13 6 -7 33 -36 30 -44
-4z"/>
<path d="M1163 1223 c-20 -7 -15 -29 10 -47 15 -12 17 -16 5 -12 -10 3 -18 1
-18 -4 0 -6 9 -10 20 -10 25 0 26 28 3 46 -17 13 -17 14 0 8 9 -3 17 -2 17 4
0 12 -21 21 -37 15z"/>
<path d="M1224 1214 c3 -9 6 -24 6 -35 0 -12 7 -19 20 -19 16 0 20 7 20 35 0
19 -5 35 -11 35 -7 0 -9 -11 -5 -30 3 -19 2 -29 -4 -25 -6 3 -10 17 -10 31 0
13 -5 24 -11 24 -6 0 -8 -7 -5 -16z"/>
<path d="M1762 1193 c2 -26 8 -38 18 -38 10 0 16 12 18 38 3 32 0 37 -18 37
-18 0 -21 -5 -18 -37z m19 -10 c-10 -17 -10 -16 -11 3 0 23 13 41 18 25 2 -6
-1 -18 -7 -28z"/>
<path d="M1837 1223 c-13 -12 -8 -73 6 -73 9 0 11 12 9 40 -4 42 -5 44 -15 33z"/>
<path d="M1890 1203 c0 -10 -3 -28 -6 -40 -5 -19 -2 -23 15 -23 15 0 20 4 14
12 -4 7 -6 25 -4 40 1 16 -2 28 -8 28 -6 0 -11 -8 -11 -17z"/>
<path d="M1047 1203 c-7 -11 22 -73 34 -73 5 0 9 18 9 40 0 23 -5 40 -11 40
-7 0 -9 -11 -5 -27 l5 -28 -13 29 c-7 16 -16 25 -19 19z"/>
<path d="M1946 1194 c-11 -29 -7 -64 9 -64 10 0 14 9 11 30 -2 17 1 30 5 30 5
0 9 5 9 10 0 16 -27 11 -34 -6z"/>
<path d="M971 1191 c-22 -14 -5 -71 22 -71 22 1 22 1 3 15 -14 10 -15 15 -6
15 10 0 11 3 3 11 -6 6 -9 18 -6 25 6 16 3 17 -16 5z"/>
<path d="M1023 1165 c6 -19 17 -35 25 -35 7 0 12 3 10 8 -35 72 -54 86 -35 27z"/>
<path d="M2004 1176 c-3 -14 -4 -33 0 -41 7 -20 32 -19 40 1 9 22 -3 32 -14
14 -8 -12 -10 -10 -10 7 0 17 4 21 16 16 12 -4 15 -2 12 8 -8 25 -37 22 -44
-5z"/>
<path d="M2076 1159 c-9 -45 -8 -49 10 -49 10 0 14 6 10 15 -3 8 -2 15 2 15 4
0 8 11 8 25 3 36 -22 31 -30 -6z"/>
<path d="M890 1165 c0 -27 11 -65 19 -65 22 1 33 20 26 49 -4 17 -11 31 -15
31 -5 0 -7 -8 -3 -17 5 -15 3 -14 -10 2 -16 20 -16 20 -17 0z"/>
<path d="M1380 1090 c0 -5 5 -10 10 -10 6 0 10 5 10 10 0 6 -4 10 -10 10 -5 0
-10 -4 -10 -10z"/>
<path d="M1707 1075 c-8 -18 11 -31 25 -17 11 11 3 32 -12 32 -4 0 -10 -7 -13
-15z"/>
<path d="M2050 1020 c0 -5 5 -10 11 -10 5 0 7 5 4 10 -3 6 -8 10 -11 10 -2 0
-4 -4 -4 -10z"/>
<path d="M890 1003 c0 -5 5 -15 10 -23 7 -11 12 -12 21 -3 6 6 8 16 5 22 -8
12 -36 15 -36 4z"/>
<path d="M1250 763 l0 -199 67 -29 c43 -18 88 -48 120 -80 l53 -51 0 192 0
193 -48 48 c-27 26 -73 62 -103 80 -97 58 -89 72 -89 -154z m61 140 c46 -22
80 -49 72 -57 -3 -3 0 -6 8 -6 9 0 28 -13 43 -29 28 -29 28 -29 27 -168 -1
-188 0 -171 -11 -153 -5 8 -10 11 -10 7 0 -4 -15 3 -32 16 -18 13 -56 33 -84
46 l-51 23 -2 169 c-1 93 -1 169 2 169 2 0 19 -7 38 -17z"/>
<path d="M1678 929 c-31 -17 -81 -53 -110 -79 l-53 -47 -5 -200 -5 -200 42 43
c47 46 108 85 166 103 l37 13 0 199 c0 109 -3 199 -7 199 -5 0 -34 -14 -65
-31z m42 -180 l-2 -171 -46 -20 c-26 -11 -68 -36 -94 -54 l-48 -34 0 155 0
154 50 48 c39 37 116 89 138 93 1 0 2 -77 2 -171z"/>
<path d="M1210 737 l0 -202 58 -16 c31 -9 66 -20 77 -24 14 -5 17 -5 10 2 -5
6 -35 20 -65 31 l-55 20 -3 196 c-1 119 -6 196 -12 196 -6 0 -10 -77 -10 -203z"/>
<path d="M1770 747 l0 -194 -70 -27 c-89 -35 -101 -51 -14 -20 36 13 74 24 84
24 19 0 20 8 20 205 0 130 -4 205 -10 205 -6 0 -10 -71 -10 -193z"/>
<path d="M1150 695 l0 -215 38 0 c55 0 164 -25 213 -49 59 -29 61 -19 3 15
-56 33 -146 64 -186 64 l-28 0 0 194 c0 168 -2 195 -16 200 -9 3 -18 6 -20 6
-2 0 -4 -97 -4 -215z"/>
<path d="M1823 902 c-9 -6 -13 -61 -15 -197 l-3 -188 -61 -13 c-68 -14 -165
-56 -185 -81 -13 -14 -10 -14 19 1 45 23 176 56 224 56 l38 0 0 215 c0 118 -1
215 -2 215 -2 0 -9 -4 -15 -8z"/>
<path d="M1382 373 c-11 -11 -11 -16 0 -27 11 -11 16 -11 26 1 11 11 11 16 0
27 -11 11 -16 11 -26 -1z"/>
<path d="M1592 373 c-11 -11 -11 -16 0 -27 11 -11 16 -11 26 1 11 11 11 16 0
27 -11 11 -16 11 -26 -1z"/>
<path d="M1490 365 c0 -9 -10 -19 -22 -24 l-23 -8 22 -7 c11 -4 24 -17 28 -29
l8 -22 4 22 c2 12 14 25 26 29 l22 7 -23 8 c-12 5 -22 15 -22 24 0 8 -4 15
-10 15 -5 0 -10 -7 -10 -15z"/>
<path d="M596 1067 c-30 -39 -42 -88 -29 -112 9 -15 13 -13 36 15 21 25 27 42
27 81 0 27 -2 49 -4 49 -3 0 -16 -15 -30 -33z"/>
<path d="M2370 1053 c0 -42 5 -58 27 -83 23 -28 27 -30 36 -15 14 26 0 78 -33
115 l-29 35 -1 -52z"/>
<path d="M485 978 c-9 -46 1 -90 27 -123 16 -21 23 -24 29 -13 20 31 3 104
-34 153 -15 19 -15 18 -22 -17z"/>
<path d="M2482 979 c-27 -44 -37 -89 -27 -126 l7 -28 23 28 c29 33 41 87 28
130 l-9 31 -22 -35z"/>
<path d="M633 940 c-35 -21 -63 -66 -63 -100 l0 -22 33 21 c34 22 71 80 65
106 -3 13 -8 12 -35 -5z"/>
<path d="M2330 943 c0 -31 34 -83 68 -104 l32 -21 0 30 c0 35 -30 76 -71 97
-27 14 -29 14 -29 -2z"/>
<path d="M460 814 c1 -40 33 -108 61 -128 23 -16 24 -16 27 4 6 34 -17 85 -53
120 l-35 34 0 -30z"/>
<path d="M614 806 c-35 -41 -49 -89 -35 -114 7 -13 12 -11 35 12 26 29 40 76
34 117 -3 22 -4 22 -34 -15z"/>
<path d="M2350 808 c0 -47 13 -80 41 -107 19 -17 24 -19 31 -7 14 24 -3 74
-38 113 l-33 38 -1 -37z"/>
<path d="M2498 802 c-55 -61 -68 -154 -16 -113 30 24 61 97 56 131 -3 22 -5
21 -40 -18z"/>
<path d="M632 672 c-23 -41 -29 -96 -12 -122 5 -8 11 -12 13 -10 35 44 47 106
28 153 -6 15 -10 12 -29 -21z"/>
<path d="M2337 689 c-16 -57 -6 -105 30 -149 2 -2 8 2 13 10 17 27 10 84 -14
124 -22 37 -23 38 -29 15z"/>
<path d="M470 659 c0 -28 46 -93 77 -112 48 -28 57 -18 31 32 -24 45 -108 107
-108 80z"/>
<path d="M2484 645 c-42 -25 -95 -106 -74 -113 32 -11 130 95 118 128 -2 5
-22 -2 -44 -15z"/>
<path d="M680 537 c-10 -45 -10 -58 5 -92 15 -38 17 -39 31 -21 18 25 18 87 0
131 -8 19 -17 35 -20 35 -2 0 -10 -24 -16 -53z"/>
<path d="M2286 558 c-20 -46 -21 -108 -2 -134 14 -18 15 -17 30 18 19 44 19
71 1 118 l-13 35 -16 -37z"/>
<path d="M510 501 c0 -5 17 -27 38 -50 25 -29 52 -46 85 -56 26 -8 47 -12 47
-9 0 17 -37 64 -61 78 -39 23 -109 47 -109 37z"/>
<path d="M2435 489 c-27 -11 -57 -25 -65 -32 -18 -14 -50 -58 -50 -68 0 -12
73 12 102 33 27 19 73 76 67 83 -2 1 -26 -6 -54 -16z"/>
<path d="M760 432 c0 -53 16 -98 44 -121 13 -11 16 -7 21 22 7 37 -9 85 -44
127 l-21 25 0 -53z"/>
<path d="M2209 444 c-34 -50 -42 -77 -34 -115 7 -29 8 -29 25 -14 28 26 42 68
38 120 l-3 49 -26 -40z"/>
<path d="M860 362 c0 -44 25 -97 57 -117 31 -21 37 -15 29 31 -5 22 -22 52
-46 78 l-39 41 -1 -33z"/>
<path d="M2098 352 c-34 -38 -59 -104 -45 -119 12 -11 54 26 71 62 10 19 16
50 14 67 l-3 31 -37 -41z"/>
<path d="M606 339 c18 -29 100 -69 141 -69 24 0 43 4 43 8 0 14 -33 40 -73 57
-43 18 -122 21 -111 4z"/>
<path d="M2280 334 c-37 -16 -70 -42 -70 -56 0 -4 19 -8 43 -8 41 0 123 40
141 69 11 17 -72 13 -114 -5z"/>
<path d="M970 309 c1 -29 47 -93 80 -111 42 -22 49 -11 23 38 -20 39 -103 97
-103 73z"/>
<path d="M1984 295 c-39 -23 -80 -83 -72 -105 2 -6 19 -2 38 8 34 16 86 91 78
112 -2 5 -22 -1 -44 -15z"/>
<path d="M1114 244 c29 -43 72 -74 104 -74 27 0 28 10 1 44 -22 29 -58 49
-102 60 l-28 7 25 -37z"/>
<path d="M1855 265 c-38 -14 -95 -64 -95 -85 0 -16 43 -11 73 9 28 18 84 91
70 91 -4 -1 -26 -7 -48 -15z"/>
<path d="M755 226 l-40 -13 30 -13 c57 -24 99 -29 143 -18 23 6 42 14 42 18 0
12 -77 40 -108 39 -15 0 -45 -6 -67 -13z"/>
<path d="M2108 223 c-21 -8 -38 -19 -38 -23 0 -4 19 -12 43 -18 43 -11 85 -6
142 18 l30 13 -40 13 c-54 17 -92 16 -137 -3z"/>
<path d="M931 152 c-23 -9 -44 -21 -45 -27 0 -5 22 -14 50 -19 42 -7 59 -5 97
12 55 24 59 37 16 46 -47 9 -69 7 -118 -12z m76 -18 c-3 -3 -12 -4 -19 -1 -8
3 -5 6 6 6 11 1 17 -2 13 -5z"/>
<path d="M1943 163 c-35 -7 -27 -22 23 -44 36 -16 56 -19 95 -14 27 4 52 11
55 16 14 23 -117 55 -173 42z m74 -29 c-3 -3 -12 -4 -19 -1 -8 3 -5 6 6 6 11
1 17 -2 13 -5z"/>
<path d="M1142 130 c-25 -10 -92 -62 -92 -71 0 -8 114 7 136 19 10 5 30 22 43
36 l24 26 -44 -1 c-24 0 -54 -4 -67 -9z"/>
<path d="M1760 132 c0 -18 60 -61 93 -66 110 -17 117 -12 50 37 -43 31 -143
51 -143 29z"/>
</g>
</svg>
